solid Camera Pod
facet normal -0.13052619222005898 0.9914448613738096 -4.279647048110483e-20
  outer loop
    vertex -12.836307967416236 48.41006799628867 53.00000000000001
    vertex -12.836307967416236 48.41006799628867 0.0
    vertex -12.966834159636281 48.39288389708233 0.0
  endloop
endfacet
facet normal -0.7933533402912339 -0.6087614290087222 0.0
  outer loop
    vertex -25.049999999999986 43.38787272960038 55.0
    vertex -24.441238570991267 42.59451938930915 0.0
    vertex -24.441238570991267 42.59451938930915 55.0
  endloop
endfacet
facet normal -0.7933533402912339 -0.6087614290087222 0.0
  outer loop
    vertex -24.441238570991267 42.59451938930915 0.0
    vertex -25.049999999999986 43.38787272960038 55.0
    vertex -25.049999999999986 43.38787272960038 0.0
  endloop
endfacet
facet normal -0.7933533402912339 -0.6087614290087222 0.0
  outer loop
    vertex -25.049999999999986 43.38787272960038 0.0
    vertex -25.049999999999986 43.38787272960038 55.0
    vertex -25.049999999999986 43.38787272960038 53.00000000000001
  endloop
endfacet
facet normal -0.9524977630958154 -0.30454558164167805 -8.358814140368156e-16
  outer loop
    vertex -5.021658655010874 71.74639616676369 77.99999999999999
    vertex 1.0158052593083609 52.86360416511572 -3.999999999999925
    vertex 1.015805259308406 52.86360416511505 77.99999999999999
  endloop
endfacet
facet normal -0.9524977630958154 -0.30454558164167805 -8.358814140368156e-16
  outer loop
    vertex 1.0158052593083609 52.86360416511572 -3.999999999999925
    vertex -5.021658655010874 71.74639616676369 77.99999999999999
    vertex -5.021658655010874 71.74639616676369 -3.9999999999999996
  endloop
endfacet
facet normal -0.9524977630958154 -0.30454558164167805 -8.358814140368156e-16
  outer loop
    vertex -5.021658655010874 71.74639616676369 -3.9999999999999996
    vertex -5.021658655010874 71.74639616676369 77.99999999999999
    vertex -5.021658655010874 71.74639616676369 -1.9999999999999998
  endloop
endfacet
facet normal 0.13052619222005904 -0.9914448613738096 0.0
  outer loop
    vertex -12.836307967416236 48.41006799628867 55.0
    vertex -12.966834159636281 48.39288389708233 53.00000000000001
    vertex -12.836307967416236 48.41006799628867 53.00000000000001
  endloop
endfacet
facet normal 0.13052619222005904 -0.9914448613738096 0.0
  outer loop
    vertex -12.966834159636281 48.39288389708233 53.00000000000001
    vertex -12.836307967416236 48.41006799628867 55.0
    vertex -12.966834159636281 48.39288389708233 55.0
  endloop
endfacet
facet normal 0.6087614290087194 -0.793353340291236 0.0
  outer loop
    vertex -27.752391776220403 40.0537821736038 53.00000000000001
    vertex -29.339098456802873 38.83625931558636 -3.9999999999999996
    vertex -27.752391776220403 40.0537821736038 -3.9999999999999996
  endloop
endfacet
facet normal 0.6087614290087194 -0.793353340291236 0.0
  outer loop
    vertex -29.339098456802873 38.83625931558636 -3.9999999999999996
    vertex -27.752391776220403 40.0537821736038 53.00000000000001
    vertex -29.339098456802873 38.83625931558636 53.00000000000001
  endloop
endfacet
facet normal 0.6087614290087194 -0.793353340291236 0.0
  outer loop
    vertex -29.339098456802873 38.83625931558636 53.00000000000001
    vertex -27.752391776220403 40.0537821736038 53.00000000000001
    vertex -27.752391776220403 40.0537821736038 55.0
  endloop
endfacet
facet normal 0.6087614290087194 -0.793353340291236 0.0
  outer loop
    vertex -29.339098456802873 38.83625931558636 53.00000000000001
    vertex -27.752391776220403 40.0537821736038 55.0
    vertex -29.339098456802873 38.83625931558636 55.0
  endloop
endfacet
facet normal 0.6087614290087194 -0.793353340291236 0.0
  outer loop
    vertex -29.339098456802873 38.83625931558636 55.0
    vertex -27.752391776220403 40.0537821736038 55.0
    vertex -27.752391776220403 40.0537821736038 79.99999999999996
  endloop
endfacet
facet normal 0.6087614290087194 -0.793353340291236 0.0
  outer loop
    vertex -29.339098456802873 38.83625931558636 55.0
    vertex -27.752391776220403 40.0537821736038 79.99999999999996
    vertex -29.339098456802873 38.83625931558636 79.99999999999996
  endloop
endfacet
facet normal 0.608761429008735 -0.7933533402912242 -8.950037928668928e-17
  outer loop
    vertex -24.441238570991267 42.59451938930915 79.99999999999996
    vertex -24.545685519709906 42.51437442674528 55.0
    vertex -24.441238570991267 42.59451938930915 55.0
  endloop
endfacet
facet normal 0.608761429008735 -0.7933533402912242 -8.950037928668928e-17
  outer loop
    vertex -24.545685519709906 42.51437442674528 55.0
    vertex -24.441238570991267 42.59451938930915 79.99999999999996
    vertex -24.545685519709906 42.51437442674528 79.99999999999996
  endloop
endfacet
facet normal 0.130526192220059 -0.9914448613738096 0.0
  outer loop
    vertex -12.705781775196188 47.41862313491486 79.99999999999996
    vertex -12.83630796741623 47.40143903570852 55.0
    vertex -12.705781775196188 47.41862313491486 55.0
  endloop
endfacet
facet normal 0.130526192220059 -0.9914448613738096 0.0
  outer loop
    vertex -12.83630796741623 47.40143903570852 55.0
    vertex -12.705781775196188 47.41862313491486 79.99999999999996
    vertex -12.83630796741623 47.40143903570852 79.99999999999996
  endloop
endfacet
facet normal 1.2978654622330428e-17 -1.187896437218542e-17 -1.0
  outer loop
    vertex -5.3262042366525515 72.69889392985951 -3.9999999999999996
    vertex -36.95240826357007 61.53706120708137 -3.9999999999999996
    vertex -37.25695384521174 62.4895589701772 -3.9999999999999982
  endloop
endfacet
facet normal 1.2978654622330428e-17 -1.187896437218542e-17 -1.0
  outer loop
    vertex -36.95240826357007 61.53706120708137 -3.9999999999999996
    vertex -5.3262042366525515 72.69889392985951 -3.9999999999999996
    vertex -5.021658655010874 71.74639616676369 -3.9999999999999996
  endloop
endfacet
facet normal 1.2978654622330428e-17 -1.187896437218542e-17 -1.0
  outer loop
    vertex -5.021658655010874 71.74639616676369 -3.9999999999999996
    vertex -5.3262042366525515 72.69889392985951 -3.9999999999999996
    vertex -4.069160891915062 72.05094174840536 -3.9999999999999996
  endloop
endfacet
facet normal 1.2978654622330428e-17 -1.187896437218542e-17 -1.0
  outer loop
    vertex -5.021658655010874 71.74639616676369 -3.9999999999999996
    vertex -4.069160891915062 72.05094174840536 -3.9999999999999996
    vertex 1.0158052593083609 52.86360416511572 -3.999999999999925
  endloop
endfacet
facet normal 1.2978654622330428e-17 -1.187896437218542e-17 -1.0
  outer loop
    vertex 1.0158052593083609 52.86360416511572 -3.999999999999925
    vertex -4.069160891915062 72.05094174840536 -3.9999999999999996
    vertex 2.9353874858434392 50.14349319720157 -3.9999999999999996
  endloop
endfacet
facet normal 1.2978654622330428e-17 -1.187896437218542e-17 -1.0
  outer loop
    vertex 1.0158052593083609 52.86360416511572 -3.999999999999925
    vertex 2.9353874858434392 50.14349319720157 -3.9999999999999996
    vertex 1.852363530527572 48.84750275418609 -3.9999999999999996
  endloop
endfacet
facet normal 1.2978654622330428e-17 -1.187896437218542e-17 -1.0
  outer loop
    vertex -37.25695384521174 62.4895589701772 -3.9999999999999982
    vertex -30.900357648907413 39.325067074235925 -3.9999999999999996
    vertex -38.209451608307575 62.1850133885355 -4.000000000000003
  endloop
endfacet
facet normal 1.2978654622330428e-17 -1.187896437218542e-17 -1.0
  outer loop
    vertex -30.900357648907413 39.325067074235925 -3.9999999999999996
    vertex -37.25695384521174 62.4895589701772 -3.9999999999999982
    vertex -36.95240826357007 61.53706120708137 -3.9999999999999996
  endloop
endfacet
facet normal 1.2978654622330428e-17 -1.187896437218542e-17 -1.0
  outer loop
    vertex -30.900357648907413 39.325067074235925 -3.9999999999999996
    vertex -36.95240826357007 61.53706120708137 -3.9999999999999996
    vertex -30.914944349250785 42.65426920543264 -3.9999999999999702
  endloop
endfacet
facet normal 1.2978654622330428e-17 -1.187896437218542e-17 -1.0
  outer loop
    vertex -30.900357648907413 39.325067074235925 -3.9999999999999996
    vertex -30.914944349250785 42.65426920543264 -3.9999999999999702
    vertex -27.10495329686752 43.87245153199933 -3.9999999999999702
  endloop
endfacet
facet normal 1.2978654622330428e-17 -1.187896437218542e-17 -1.0
  outer loop
    vertex -30.900357648907413 39.325067074235925 -3.9999999999999996
    vertex -27.10495329686752 43.87245153199933 -3.9999999999999702
    vertex -29.339098456802873 38.83625931558636 -3.9999999999999996
  endloop
endfacet
facet normal 1.2978654622330428e-17 -1.187896437218542e-17 -1.0
  outer loop
    vertex -29.339098456802873 38.83625931558636 -3.9999999999999996
    vertex -27.10495329686752 43.87245153199933 -3.9999999999999702
    vertex -27.752391776220403 40.0537821736038 -3.9999999999999996
  endloop
endfacet
facet normal 1.2978654622330428e-17 -1.187896437218542e-17 -1.0
  outer loop
    vertex -27.752391776220403 40.0537821736038 -3.9999999999999996
    vertex -27.10495329686752 43.87245153199933 -3.9999999999999702
    vertex -24.54568551970992 42.51437442674528 -3.9999999999999996
  endloop
endfacet
facet normal 1.2978654622330428e-17 -1.187896437218542e-17 -1.0
  outer loop
    vertex -24.54568551970992 42.51437442674528 -3.9999999999999996
    vertex -27.10495329686752 43.87245153199933 -3.9999999999999702
    vertex -12.966834159636281 48.39288389708233 -3.9999999999999996
  endloop
endfacet
facet normal 1.2978654622330428e-17 -1.187896437218542e-17 -1.0
  outer loop
    vertex -24.54568551970992 42.51437442674528 -3.9999999999999996
    vertex -12.966834159636281 48.39288389708233 -3.9999999999999996
    vertex -18.625733647453043 44.966498780830065 -3.9999999999999996
  endloop
endfacet
facet normal 1.2978654622330428e-17 -1.187896437218542e-17 -1.0
  outer loop
    vertex -18.625733647453043 44.966498780830065 -3.9999999999999996
    vertex -12.966834159636281 48.39288389708233 -3.9999999999999996
    vertex -12.705781775196188 47.41862313491486 -3.9999999999999996
  endloop
endfacet
facet normal 1.2978654622330428e-17 -1.187896437218542e-17 -1.0
  outer loop
    vertex -12.705781775196188 47.41862313491486 -3.9999999999999996
    vertex -12.966834159636281 48.39288389708233 -3.9999999999999996
    vertex -12.836307967416236 48.41006799628867 -3.9999999999999996
  endloop
endfacet
facet normal 1.2978654622330428e-17 -1.187896437218542e-17 -1.0
  outer loop
    vertex -12.705781775196188 47.41862313491486 -3.9999999999999996
    vertex -12.836307967416236 48.41006799628867 -3.9999999999999996
    vertex -2.794185793074908 51.64542183854902 -3.999999999999925
  endloop
endfacet
facet normal 1.2978654622330428e-17 -1.187896437218542e-17 -1.0
  outer loop
    vertex -12.705781775196188 47.41862313491486 -3.9999999999999996
    vertex -2.794185793074908 51.64542183854902 -3.999999999999925
    vertex -6.352890887598085 48.254997087167354 -3.9999999999999996
  endloop
endfacet
facet normal 1.2978654622330428e-17 -1.187896437218542e-17 -1.0
  outer loop
    vertex -6.352890887598085 48.254997087167354 -3.9999999999999996
    vertex -2.794185793074908 51.64542183854902 -3.999999999999925
    vertex 0.0 49.091371039419855 -3.9999999999999996
  endloop
endfacet
facet normal 1.2978654622330428e-17 -1.187896437218542e-17 -1.0
  outer loop
    vertex 0.0 49.091371039419855 -3.9999999999999996
    vertex -2.794185793074908 51.64542183854902 -3.999999999999925
    vertex 1.0158052593083609 52.86360416511572 -3.999999999999925
  endloop
endfacet
facet normal 1.2978654622330428e-17 -1.187896437218542e-17 -1.0
  outer loop
    vertex 0.0 49.091371039419855 -3.9999999999999996
    vertex 1.0158052593083609 52.86360416511572 -3.999999999999925
    vertex 1.852363530527572 48.84750275418609 -3.9999999999999996
  endloop
endfacet
facet normal 0.0 0.0 -1.0
  outer loop
    vertex -12.77217603609587 47.92293761520496 55.0
    vertex -12.966834159636281 48.39288389708233 55.0
    vertex -12.836307967416236 48.41006799628867 55.0
  endloop
endfacet
facet normal 0.38268343236509067 -0.9238795325112865 5.517599813644715e-19
  outer loop
    vertex -12.705781775196188 47.41862313491486 0.0
    vertex -18.625733647453043 44.966498780830065 -3.9999999999999996
    vertex -12.705781775196188 47.41862313491486 -3.9999999999999996
  endloop
endfacet
facet normal 0.38268343236509067 -0.9238795325112865 5.517599813644715e-19
  outer loop
    vertex -18.625733647453043 44.966498780830065 -3.9999999999999996
    vertex -12.705781775196188 47.41862313491486 0.0
    vertex -18.625733647453043 44.966498780830065 55.0
  endloop
endfacet
facet normal 0.38268343236509067 -0.9238795325112865 5.517599813644715e-19
  outer loop
    vertex -18.625733647453043 44.966498780830065 55.0
    vertex -12.705781775196188 47.41862313491486 0.0
    vertex -12.705781775196188 47.41862313491486 53.00000000000001
  endloop
endfacet
facet normal 0.38268343236509067 -0.9238795325112865 5.517599813644715e-19
  outer loop
    vertex -18.625733647453043 44.966498780830065 55.0
    vertex -12.705781775196188 47.41862313491486 53.00000000000001
    vertex -12.705781775196188 47.41862313491486 55.0
  endloop
endfacet
facet normal 0.38268343236509067 -0.9238795325112865 5.517599813644715e-19
  outer loop
    vertex -18.625733647453043 44.966498780830065 55.0
    vertex -12.705781775196188 47.41862313491486 55.0
    vertex -12.705781775196188 47.41862313491486 79.99999999999996
  endloop
endfacet
facet normal 0.38268343236509067 -0.9238795325112865 5.517599813644715e-19
  outer loop
    vertex -18.625733647453043 44.966498780830065 55.0
    vertex -12.705781775196188 47.41862313491486 79.99999999999996
    vertex -18.625733647453043 44.966498780830065 79.99999999999999
  endloop
endfacet
facet normal 0.38268343236508945 -0.9238795325112868 -1.8489441449236816e-19
  outer loop
    vertex -18.625733647453043 44.966498780830065 55.0
    vertex -24.54568551970992 42.51437442674528 -3.9999999999999996
    vertex -18.625733647453043 44.966498780830065 -3.9999999999999996
  endloop
endfacet
facet normal 0.38268343236508945 -0.9238795325112868 -1.8489441449236816e-19
  outer loop
    vertex -24.54568551970992 42.51437442674528 -3.9999999999999996
    vertex -18.625733647453043 44.966498780830065 55.0
    vertex -24.54568551970992 42.51437442674528 53.00000000000001
  endloop
endfacet
facet normal 0.38268343236508945 -0.9238795325112868 -1.8489441449236816e-19
  outer loop
    vertex -24.54568551970992 42.51437442674528 53.00000000000001
    vertex -18.625733647453043 44.966498780830065 55.0
    vertex -24.545685519709906 42.51437442674528 55.0
  endloop
endfacet
facet normal 0.38268343236508945 -0.9238795325112868 -1.8489441449236816e-19
  outer loop
    vertex -24.545685519709906 42.51437442674528 55.0
    vertex -18.625733647453043 44.966498780830065 55.0
    vertex -18.625733647453043 44.966498780830065 79.99999999999999
  endloop
endfacet
facet normal 0.38268343236508945 -0.9238795325112868 -1.8489441449236816e-19
  outer loop
    vertex -24.545685519709906 42.51437442674528 55.0
    vertex -18.625733647453043 44.966498780830065 79.99999999999999
    vertex -24.545685519709906 42.51437442674528 79.99999999999996
  endloop
endfacet
facet normal 0.7933533402912362 0.6087614290087197 0.0
  outer loop
    vertex -29.947859885811592 39.629612655877594 53.00000000000001
    vertex -29.339098456802873 38.83625931558636 55.0
    vertex -29.339098456802873 38.83625931558636 53.00000000000001
  endloop
endfacet
facet normal 0.7933533402912362 0.6087614290087197 0.0
  outer loop
    vertex -29.339098456802873 38.83625931558636 55.0
    vertex -29.947859885811592 39.629612655877594 53.00000000000001
    vertex -29.947859885811592 39.629612655877594 55.0
  endloop
endfacet
facet normal -0.13052619222005907 0.9914448613738096 2.896614273563287e-20
  outer loop
    vertex -12.83630796741623 47.40143903570852 55.0
    vertex -12.705781775196188 47.41862313491486 0.0
    vertex -12.83630796741623 47.40143903570852 0.0
  endloop
endfacet
facet normal -0.13052619222005907 0.9914448613738096 2.896614273563287e-20
  outer loop
    vertex -12.705781775196188 47.41862313491486 0.0
    vertex -12.83630796741623 47.40143903570852 55.0
    vertex -12.705781775196188 47.41862313491486 53.00000000000001
  endloop
endfacet
facet normal -0.13052619222005907 0.9914448613738096 2.896614273563287e-20
  outer loop
    vertex -12.705781775196188 47.41862313491486 53.00000000000001
    vertex -12.83630796741623 47.40143903570852 55.0
    vertex -12.705781775196188 47.41862313491486 55.0
  endloop
endfacet
facet normal -0.7933533402912362 -0.6087614290087197 0.0
  outer loop
    vertex -28.361153205229122 40.84713551389503 55.0
    vertex -27.752391776220403 40.0537821736038 53.00000000000001
    vertex -27.752391776220403 40.0537821736038 55.0
  endloop
endfacet
facet normal -0.7933533402912362 -0.6087614290087197 0.0
  outer loop
    vertex -27.752391776220403 40.0537821736038 53.00000000000001
    vertex -28.361153205229122 40.84713551389503 55.0
    vertex -28.361153205229122 40.84713551389503 53.00000000000001
  endloop
endfacet
facet normal -0.2987840743277858 -0.9543207411180415 -1.1323372921886634e-19
  outer loop
    vertex -29.339098456802873 38.83625931558636 53.00000000000001
    vertex -30.900357648907413 39.325067074235925 -3.9999999999999996
    vertex -29.339098456802873 38.83625931558636 -3.9999999999999996
  endloop
endfacet
facet normal -0.2987840743277858 -0.9543207411180415 -1.1323372921886634e-19
  outer loop
    vertex -30.900357648907413 39.325067074235925 -3.9999999999999996
    vertex -29.339098456802873 38.83625931558636 53.00000000000001
    vertex -30.900357648907413 39.325067074235925 79.99999999999996
  endloop
endfacet
facet normal -0.2987840743277858 -0.9543207411180415 -1.1323372921886634e-19
  outer loop
    vertex -30.900357648907413 39.325067074235925 79.99999999999996
    vertex -29.339098456802873 38.83625931558636 53.00000000000001
    vertex -29.339098456802873 38.83625931558636 55.0
  endloop
endfacet
facet normal -0.2987840743277858 -0.9543207411180415 -1.1323372921886634e-19
  outer loop
    vertex -30.900357648907413 39.325067074235925 79.99999999999996
    vertex -29.339098456802873 38.83625931558636 55.0
    vertex -29.339098456802873 38.83625931558636 79.99999999999996
  endloop
endfacet
facet normal 2.917255061544227e-16 -1.1751869821908139e-15 1.0
  outer loop
    vertex -30.900357648907413 39.325067074235925 79.99999999999996
    vertex -36.95240826357009 61.53706120708137 79.99999999999999
    vertex -38.20945160830758 62.185013388535516 79.99999999999999
  endloop
endfacet
facet normal 2.917255061544227e-16 -1.1751869821908139e-15 1.0
  outer loop
    vertex -36.95240826357009 61.53706120708137 79.99999999999999
    vertex -30.900357648907413 39.325067074235925 79.99999999999996
    vertex -29.947859885811592 39.629612655877594 79.99999999999996
  endloop
endfacet
facet normal 2.917255061544227e-16 -1.1751869821908139e-15 1.0
  outer loop
    vertex -29.947859885811592 39.629612655877594 79.99999999999996
    vertex -30.900357648907413 39.325067074235925 79.99999999999996
    vertex -29.339098456802873 38.83625931558636 79.99999999999996
  endloop
endfacet
facet normal 2.917255061544227e-16 -1.1751869821908139e-15 1.0
  outer loop
    vertex -29.947859885811592 39.629612655877594 79.99999999999996
    vertex -29.339098456802873 38.83625931558636 79.99999999999996
    vertex -28.361153205229122 40.84713551389503 79.99999999999996
  endloop
endfacet
facet normal 2.917255061544227e-16 -1.1751869821908139e-15 1.0
  outer loop
    vertex -28.361153205229122 40.84713551389503 79.99999999999996
    vertex -29.339098456802873 38.83625931558636 79.99999999999996
    vertex -27.752391776220403 40.0537821736038 79.99999999999996
  endloop
endfacet
facet normal 2.917255061544227e-16 -1.1751869821908139e-15 1.0
  outer loop
    vertex -28.361153205229122 40.84713551389503 79.99999999999996
    vertex -27.752391776220403 40.0537821736038 79.99999999999996
    vertex -25.049999999999986 43.38787272960038 79.99999999999996
  endloop
endfacet
facet normal 2.917255061544227e-16 -1.1751869821908139e-15 1.0
  outer loop
    vertex -25.049999999999986 43.38787272960038 79.99999999999996
    vertex -27.752391776220403 40.0537821736038 79.99999999999996
    vertex -24.545685519709906 42.51437442674528 79.99999999999996
  endloop
endfacet
facet normal 2.917255061544227e-16 -1.1751869821908139e-15 1.0
  outer loop
    vertex -25.049999999999986 43.38787272960038 79.99999999999996
    vertex -24.545685519709906 42.51437442674528 79.99999999999996
    vertex -19.008417079818134 45.89037831334135 79.99999999999999
  endloop
endfacet
facet normal 2.917255061544227e-16 -1.1751869821908139e-15 1.0
  outer loop
    vertex -19.008417079818134 45.89037831334135 79.99999999999999
    vertex -24.545685519709906 42.51437442674528 79.99999999999996
    vertex -18.625733647453043 44.966498780830065 79.99999999999999
  endloop
endfacet
facet normal 2.917255061544227e-16 -1.1751869821908139e-15 1.0
  outer loop
    vertex -19.008417079818134 45.89037831334135 79.99999999999999
    vertex -18.625733647453043 44.966498780830065 79.99999999999999
    vertex -12.966834159636281 48.39288389708233 79.99999999999996
  endloop
endfacet
facet normal 2.917255061544227e-16 -1.1751869821908139e-15 1.0
  outer loop
    vertex -12.966834159636281 48.39288389708233 79.99999999999996
    vertex -18.625733647453043 44.966498780830065 79.99999999999999
    vertex -12.705781775196188 47.41862313491486 79.99999999999996
  endloop
endfacet
facet normal 2.917255061544227e-16 -1.1751869821908139e-15 1.0
  outer loop
    vertex -12.966834159636281 48.39288389708233 79.99999999999996
    vertex -12.705781775196188 47.41862313491486 79.99999999999996
    vertex 5.639932965095795e-15 50.1 79.99999999999996
  endloop
endfacet
facet normal 2.917255061544227e-16 -1.1751869821908139e-15 1.0
  outer loop
    vertex 5.639932965095795e-15 50.1 79.99999999999996
    vertex -12.705781775196188 47.41862313491486 79.99999999999996
    vertex -6.352890887598085 48.254997087167354 79.99999999999999
  endloop
endfacet
facet normal 2.917255061544227e-16 -1.1751869821908139e-15 1.0
  outer loop
    vertex 5.639932965095795e-15 50.1 79.99999999999996
    vertex -6.352890887598085 48.254997087167354 79.99999999999999
    vertex 0.0 49.091371039419855 79.99999999999996
  endloop
endfacet
facet normal 2.917255061544227e-16 -1.1751869821908139e-15 1.0
  outer loop
    vertex 5.639932965095795e-15 50.1 79.99999999999996
    vertex 0.0 49.091371039419855 79.99999999999996
    vertex 1.852363530527572 48.84750275418609 79.99999999999991
  endloop
endfacet
facet normal 2.917255061544227e-16 -1.1751869821908139e-15 1.0
  outer loop
    vertex 5.639932965095795e-15 50.1 79.99999999999996
    vertex 1.852363530527572 48.84750275418609 79.99999999999991
    vertex 1.982889722747626 49.8389476155599 79.99999999999999
  endloop
endfacet
facet normal 2.917255061544227e-16 -1.1751869821908139e-15 1.0
  outer loop
    vertex 1.982889722747626 49.8389476155599 79.99999999999999
    vertex 1.852363530527572 48.84750275418609 79.99999999999991
    vertex 2.9353874858434392 50.14349319720157 79.99999999999999
  endloop
endfacet
facet normal 2.917255061544227e-16 -1.1751869821908139e-15 1.0
  outer loop
    vertex -36.95240826357009 61.53706120708137 79.99999999999999
    vertex -5.3262042366525515 72.69889392985951 79.99999999999999
    vertex -38.20945160830758 62.185013388535516 79.99999999999999
  endloop
endfacet
facet normal 2.917255061544227e-16 -1.1751869821908139e-15 1.0
  outer loop
    vertex -5.3262042366525515 72.69889392985951 79.99999999999999
    vertex -36.95240826357009 61.53706120708137 79.99999999999999
    vertex -5.021658655010874 71.74639616676369 79.99999999999999
  endloop
endfacet
facet normal 2.917255061544227e-16 -1.1751869821908139e-15 1.0
  outer loop
    vertex -5.3262042366525515 72.69889392985951 79.99999999999999
    vertex -5.021658655010874 71.74639616676369 79.99999999999999
    vertex -4.069160891915062 72.05094174840536 79.99999999999999
  endloop
endfacet
facet normal 2.917255061544227e-16 -1.1751869821908139e-15 1.0
  outer loop
    vertex -4.069160891915062 72.05094174840536 79.99999999999999
    vertex -5.021658655010874 71.74639616676369 79.99999999999999
    vertex 1.982889722747626 49.8389476155599 79.99999999999999
  endloop
endfacet
facet normal 2.917255061544227e-16 -1.1751869821908139e-15 1.0
  outer loop
    vertex -4.069160891915062 72.05094174840536 79.99999999999999
    vertex 1.982889722747626 49.8389476155599 79.99999999999999
    vertex 2.9353874858434392 50.14349319720157 79.99999999999999
  endloop
endfacet
facet normal 0.9524977630958168 0.3045455816416739 -1.3537889351491775e-18
  outer loop
    vertex -4.069160891915062 72.05094174840536 -3.9999999999999996
    vertex 2.9353874858434392 50.14349319720157 -1.9999999999999998
    vertex 2.9353874858434392 50.14349319720157 -3.9999999999999996
  endloop
endfacet
facet normal 0.9524977630958168 0.3045455816416739 -1.3537889351491775e-18
  outer loop
    vertex 2.9353874858434392 50.14349319720157 -1.9999999999999998
    vertex -4.069160891915062 72.05094174840536 -3.9999999999999996
    vertex 2.9353874858434392 50.14349319720157 79.99999999999999
  endloop
endfacet
facet normal 0.9524977630958168 0.3045455816416739 -1.3537889351491775e-18
  outer loop
    vertex 2.9353874858434392 50.14349319720157 79.99999999999999
    vertex -4.069160891915062 72.05094174840536 -3.9999999999999996
    vertex -4.069160891915062 72.05094174840536 79.99999999999999
  endloop
endfacet
facet normal 0.9524977630958168 0.3045455816416739 -1.3537889351491775e-18
  outer loop
    vertex -4.069160891915062 72.05094174840536 79.99999999999999
    vertex -4.069160891915062 72.05094174840536 -3.9999999999999996
    vertex -4.069160891915062 72.05094174840536 -1.9999999999999998
  endloop
endfacet
facet normal 0.9524977630958168 0.3045455816416739 -1.3537889351491775e-18
  outer loop
    vertex 2.9353874858434392 50.14349319720157 79.99999999999999
    vertex 2.9353874858434392 50.143493197201565 55.0
    vertex 2.9353874858434392 50.14349319720157 -1.9999999999999998
  endloop
endfacet
facet normal -0.3045455816416741 0.9524977630958168 1.204729573496068e-17
  outer loop
    vertex -38.20945160830758 62.185013388535516 79.99999999999999
    vertex -37.25695384521174 62.4895589701772 -1.999999999999998
    vertex -38.20945160830758 62.185013388535516 -1.9999999999999998
  endloop
endfacet
facet normal -0.3045455816416741 0.9524977630958168 1.204729573496068e-17
  outer loop
    vertex -37.25695384521174 62.4895589701772 -3.9999999999999982
    vertex -5.3262042366525515 72.69889392985951 79.99999999999999
    vertex -5.3262042366525515 72.69889392985951 -3.9999999999999996
  endloop
endfacet
facet normal -0.3045455816416741 0.9524977630958168 1.204729573496068e-17
  outer loop
    vertex -5.3262042366525515 72.69889392985951 79.99999999999999
    vertex -37.25695384521174 62.4895589701772 -3.9999999999999982
    vertex -37.25695384521174 62.4895589701772 -1.999999999999998
  endloop
endfacet
facet normal -0.3045455816416741 0.9524977630958168 1.204729573496068e-17
  outer loop
    vertex -5.3262042366525515 72.69889392985951 79.99999999999999
    vertex -37.25695384521174 62.4895589701772 -1.999999999999998
    vertex -38.20945160830758 62.185013388535516 79.99999999999999
  endloop
endfacet
facet normal 0.3045455816416743 -0.9524977630958166 1.4246768046620615e-18
  outer loop
    vertex -5.021658655010874 71.74639616676369 -1.9999999999999998
    vertex -36.95240826357007 61.53706120708137 -3.9999999999999996
    vertex -5.021658655010874 71.74639616676369 -3.9999999999999996
  endloop
endfacet
facet normal 0.3045455816416743 -0.9524977630958166 1.4246768046620615e-18
  outer loop
    vertex -36.95240826357007 61.53706120708137 -3.9999999999999996
    vertex -5.021658655010874 71.74639616676369 -1.9999999999999998
    vertex -36.95240826357007 61.537061207081386 -1.999999999999998
  endloop
endfacet
facet normal 0.3045455816416743 -0.9524977630958166 1.4246768046620615e-18
  outer loop
    vertex -36.95240826357007 61.537061207081386 -1.999999999999998
    vertex -5.021658655010874 71.74639616676369 -1.9999999999999998
    vertex -5.021658655010874 71.74639616676369 77.99999999999999
  endloop
endfacet
facet normal 0.3045455816416743 -0.9524977630958166 1.4246768046620615e-18
  outer loop
    vertex -36.95240826357007 61.537061207081386 -1.999999999999998
    vertex -5.021658655010874 71.74639616676369 77.99999999999999
    vertex -36.95240826357007 61.53706120708137 53.00000000000001
  endloop
endfacet
facet normal 0.3045455816416743 -0.9524977630958166 1.4246768046620615e-18
  outer loop
    vertex -36.95240826357007 61.53706120708137 53.00000000000001
    vertex -5.021658655010874 71.74639616676369 77.99999999999999
    vertex -36.95240826357009 61.53706120708137 77.99999999999999
  endloop
endfacet
facet normal 0.13052619222005135 -0.9914448613738105 7.7123767569144335e-19
  outer loop
    vertex -6.352890887598085 48.254997087167354 55.0
    vertex -12.705781775196188 47.41862313491486 -3.9999999999999996
    vertex -6.352890887598085 48.254997087167354 -3.9999999999999996
  endloop
endfacet
facet normal 0.13052619222005135 -0.9914448613738105 7.7123767569144335e-19
  outer loop
    vertex -12.705781775196188 47.41862313491486 -3.9999999999999996
    vertex -6.352890887598085 48.254997087167354 55.0
    vertex -12.705781775196188 47.41862313491486 0.0
  endloop
endfacet
facet normal 0.13052619222005135 -0.9914448613738105 7.7123767569144335e-19
  outer loop
    vertex -12.705781775196188 47.41862313491486 0.0
    vertex -6.352890887598085 48.254997087167354 55.0
    vertex -12.705781775196188 47.41862313491486 53.00000000000001
  endloop
endfacet
facet normal 0.13052619222005135 -0.9914448613738105 7.7123767569144335e-19
  outer loop
    vertex -12.705781775196188 47.41862313491486 53.00000000000001
    vertex -6.352890887598085 48.254997087167354 55.0
    vertex -12.705781775196188 47.41862313491486 55.0
  endloop
endfacet
facet normal 0.13052619222005135 -0.9914448613738105 7.7123767569144335e-19
  outer loop
    vertex -12.705781775196188 47.41862313491486 55.0
    vertex -6.352890887598085 48.254997087167354 55.0
    vertex -6.352890887598085 48.254997087167354 79.99999999999999
  endloop
endfacet
facet normal 0.13052619222005135 -0.9914448613738105 7.7123767569144335e-19
  outer loop
    vertex -12.705781775196188 47.41862313491486 55.0
    vertex -6.352890887598085 48.254997087167354 79.99999999999999
    vertex -12.705781775196188 47.41862313491486 79.99999999999996
  endloop
endfacet
facet normal 0.13052619222005146 -0.9914448613738105 4.251986442232718e-19
  outer loop
    vertex 0.0 49.091371039419855 55.0
    vertex -6.352890887598085 48.254997087167354 -3.9999999999999996
    vertex 0.0 49.091371039419855 -3.9999999999999996
  endloop
endfacet
facet normal 0.13052619222005146 -0.9914448613738105 4.251986442232718e-19
  outer loop
    vertex -6.352890887598085 48.254997087167354 -3.9999999999999996
    vertex 0.0 49.091371039419855 55.0
    vertex -6.352890887598085 48.254997087167354 55.0
  endloop
endfacet
facet normal 0.13052619222005146 -0.9914448613738105 4.251986442232718e-19
  outer loop
    vertex -6.352890887598085 48.254997087167354 55.0
    vertex 0.0 49.091371039419855 55.0
    vertex 0.0 49.091371039419855 79.99999999999996
  endloop
endfacet
facet normal 0.13052619222005146 -0.9914448613738105 4.251986442232718e-19
  outer loop
    vertex -6.352890887598085 48.254997087167354 55.0
    vertex 0.0 49.091371039419855 79.99999999999996
    vertex -6.352890887598085 48.254997087167354 79.99999999999999
  endloop
endfacet
facet normal 0.9238795325112862 0.38268343236509167 0.0
  outer loop
    vertex -25.049999999999986 43.38787272960038 53.00000000000001
    vertex -24.6673165676349 42.463993197089096 55.0
    vertex -24.6673165676349 42.463993197089096 53.00000000000001
  endloop
endfacet
facet normal 0.9238795325112862 0.38268343236509167 0.0
  outer loop
    vertex -24.6673165676349 42.463993197089096 55.0
    vertex -25.049999999999986 43.38787272960038 53.00000000000001
    vertex -25.049999999999986 43.38787272960038 55.0
  endloop
endfacet
facet normal 0.952497763095817 0.30454558164167306 1.009508974734953e-16
  outer loop
    vertex -36.95240826357007 61.537061207081386 -1.999999999999998
    vertex -36.95240826357007 61.53706120708137 53.00000000000001
    vertex -36.95240826357007 61.53706120708137 -3.9999999999999996
  endloop
endfacet
facet normal 0.952497763095817 0.30454558164167306 1.009508974734953e-16
  outer loop
    vertex -36.95240826357007 61.53706120708137 -3.9999999999999996
    vertex -30.914944349250813 42.654269205432755 77.99999999999994
    vertex -30.914944349250785 42.65426920543264 -3.9999999999999702
  endloop
endfacet
facet normal 0.952497763095817 0.30454558164167306 1.009508974734953e-16
  outer loop
    vertex -30.914944349250813 42.654269205432755 77.99999999999994
    vertex -36.95240826357007 61.53706120708137 -3.9999999999999996
    vertex -36.95240826357009 61.53706120708137 77.99999999999999
  endloop
endfacet
facet normal 0.952497763095817 0.30454558164167306 1.009508974734953e-16
  outer loop
    vertex -36.95240826357009 61.53706120708137 77.99999999999999
    vertex -36.95240826357007 61.53706120708137 -3.9999999999999996
    vertex -36.95240826357007 61.53706120708137 53.00000000000001
  endloop
endfacet
facet normal 0.3826834323650831 -0.9238795325112897 0.0
  outer loop
    vertex -12.584150727271188 47.46900436457104 79.99999999999996
    vertex -12.705781775196188 47.41862313491486 55.0
    vertex -12.584150727271188 47.46900436457104 55.0
  endloop
endfacet
facet normal 0.3826834323650831 -0.9238795325112897 0.0
  outer loop
    vertex -12.705781775196188 47.41862313491486 55.0
    vertex -12.584150727271188 47.46900436457104 79.99999999999996
    vertex -12.705781775196188 47.41862313491486 79.99999999999996
  endloop
endfacet
facet normal 0.45817138139083996 0.888863873309299 0.0
  outer loop
    vertex -5.3262042366525515 72.69889392985951 79.99999999999999
    vertex -4.069160891915062 72.05094174840536 -3.9999999999999996
    vertex -5.3262042366525515 72.69889392985951 -3.9999999999999996
  endloop
endfacet
facet normal 0.45817138139083996 0.888863873309299 0.0
  outer loop
    vertex -4.069160891915062 72.05094174840536 -3.9999999999999996
    vertex -5.3262042366525515 72.69889392985951 79.99999999999999
    vertex -4.069160891915062 72.05094174840536 -1.9999999999999998
  endloop
endfacet
facet normal 0.45817138139083996 0.888863873309299 0.0
  outer loop
    vertex -4.069160891915062 72.05094174840536 -1.9999999999999998
    vertex -5.3262042366525515 72.69889392985951 79.99999999999999
    vertex -4.069160891915062 72.05094174840536 79.99999999999999
  endloop
endfacet
facet normal -0.608761429008717 0.793353340291238 -1.4606213174391077e-19
  outer loop
    vertex -28.361153205229122 40.84713551389503 53.00000000000001
    vertex -28.361153205229122 40.84713551389503 -3.9999999999999996
    vertex -28.478687033420417 40.75694863552337 -3.9999999999999702
  endloop
endfacet
facet normal -0.30454558164168083 0.9524977630958146 -3.1059162934857827e-15
  outer loop
    vertex -38.20945160830758 62.185013388535516 -1.9999999999999998
    vertex -37.25695384521174 62.4895589701772 -3.9999999999999982
    vertex -38.209451608307575 62.1850133885355 -4.000000000000003
  endloop
endfacet
facet normal -0.30454558164168083 0.9524977630958146 -3.1059162934857827e-15
  outer loop
    vertex -37.25695384521174 62.4895589701772 -3.9999999999999982
    vertex -38.20945160830758 62.185013388535516 -1.9999999999999998
    vertex -37.25695384521174 62.4895589701772 -1.999999999999998
  endloop
endfacet
facet normal 0.0 0.0 -1.0
  outer loop
    vertex -12.77217603609587 47.92293761520496 0.0
    vertex -12.83630796741623 47.40143903570852 0.0
    vertex -12.966834159636281 48.39288389708233 0.0
  endloop
endfacet
facet normal 0.0 0.0 -1.0
  outer loop
    vertex -12.83630796741623 47.40143903570852 0.0
    vertex -12.77217603609587 47.92293761520496 0.0
    vertex -12.705781775196188 47.41862313491486 0.0
  endloop
endfacet
facet normal -0.9914448613738105 -0.1305261922200513 -3.4273429949990587e-19
  outer loop
    vertex -12.966834159636281 48.39288389708233 55.0
    vertex -12.83630796741623 47.40143903570852 0.0
    vertex -12.83630796741623 47.40143903570852 55.0
  endloop
endfacet
facet normal -0.9914448613738105 -0.1305261922200513 -3.4273429949990587e-19
  outer loop
    vertex -12.83630796741623 47.40143903570852 0.0
    vertex -12.966834159636281 48.39288389708233 55.0
    vertex -12.966834159636281 48.39288389708233 0.0
  endloop
endfacet
facet normal -0.9914448613738105 -0.1305261922200513 -3.4273429949990587e-19
  outer loop
    vertex -12.966834159636281 48.39288389708233 0.0
    vertex -12.966834159636281 48.39288389708233 55.0
    vertex -12.966834159636281 48.39288389708233 53.00000000000001
  endloop
endfacet
facet normal 0.6087614290087207 -0.7933533402912352 -2.268131985136082e-17
  outer loop
    vertex -24.54568551970992 42.51437442674528 53.00000000000001
    vertex -27.752391776220403 40.0537821736038 -3.9999999999999996
    vertex -24.54568551970992 42.51437442674528 -3.9999999999999996
  endloop
endfacet
facet normal 0.6087614290087207 -0.7933533402912352 -2.268131985136082e-17
  outer loop
    vertex -27.752391776220403 40.0537821736038 -3.9999999999999996
    vertex -24.54568551970992 42.51437442674528 53.00000000000001
    vertex -27.752391776220403 40.0537821736038 53.00000000000001
  endloop
endfacet
facet normal 0.6087614290087207 -0.7933533402912352 -2.268131985136082e-17
  outer loop
    vertex -27.752391776220403 40.0537821736038 53.00000000000001
    vertex -24.54568551970992 42.51437442674528 53.00000000000001
    vertex -24.545685519709906 42.51437442674528 55.0
  endloop
endfacet
facet normal 0.6087614290087207 -0.7933533402912352 -2.268131985136082e-17
  outer loop
    vertex -27.752391776220403 40.0537821736038 53.00000000000001
    vertex -24.545685519709906 42.51437442674528 55.0
    vertex -27.752391776220403 40.0537821736038 55.0
  endloop
endfacet
facet normal 0.6087614290087207 -0.7933533402912352 -2.268131985136082e-17
  outer loop
    vertex -27.752391776220403 40.0537821736038 55.0
    vertex -24.545685519709906 42.51437442674528 55.0
    vertex -24.545685519709906 42.51437442674528 79.99999999999996
  endloop
endfacet
facet normal 0.6087614290087207 -0.7933533402912352 -2.268131985136082e-17
  outer loop
    vertex -27.752391776220403 40.0537821736038 55.0
    vertex -24.545685519709906 42.51437442674528 79.99999999999996
    vertex -27.752391776220403 40.0537821736038 79.99999999999996
  endloop
endfacet
facet normal 0.38268343236509067 -0.9238795325112865 0.0
  outer loop
    vertex -24.545685519709906 42.51437442674528 79.99999999999996
    vertex -24.6673165676349 42.463993197089096 55.0
    vertex -24.545685519709906 42.51437442674528 55.0
  endloop
endfacet
facet normal 0.38268343236509067 -0.9238795325112865 0.0
  outer loop
    vertex -24.6673165676349 42.463993197089096 55.0
    vertex -24.545685519709906 42.51437442674528 79.99999999999996
    vertex -24.6673165676349 42.463993197089096 79.99999999999996
  endloop
endfacet
facet normal 0.7673376850701781 -0.6412432277000204 -1.3688785458257303e-17
  outer loop
    vertex 1.852363530527572 48.84750275418609 -3.9999999999999996
    vertex 1.852363530527572 48.84750275418609 79.99999999999991
    vertex 1.852363530527572 48.84750275418609 55.0
  endloop
endfacet
facet normal 0.7673376850701781 -0.6412432277000204 -1.3688785458257303e-17
  outer loop
    vertex 1.852363530527572 48.84750275418609 79.99999999999991
    vertex 1.852363530527572 48.84750275418609 -3.9999999999999996
    vertex 2.9353874858434392 50.14349319720157 -3.9999999999999996
  endloop
endfacet
facet normal 0.7673376850701781 -0.6412432277000204 -1.3688785458257303e-17
  outer loop
    vertex 1.852363530527572 48.84750275418609 79.99999999999991
    vertex 2.9353874858434392 50.14349319720157 -3.9999999999999996
    vertex 2.9353874858434392 50.143493197201565 55.0
  endloop
endfacet
facet normal 0.7673376850701781 -0.6412432277000204 -1.3688785458257303e-17
  outer loop
    vertex 2.9353874858434392 50.143493197201565 55.0
    vertex 2.9353874858434392 50.14349319720157 -3.9999999999999996
    vertex 2.9353874858434392 50.14349319720157 -1.9999999999999998
  endloop
endfacet
facet normal 0.7673376850701781 -0.6412432277000204 -1.3688785458257303e-17
  outer loop
    vertex 2.9353874858434392 50.14349319720157 79.99999999999999
    vertex 1.852363530527572 48.84750275418609 79.99999999999991
    vertex 2.9353874858434392 50.143493197201565 55.0
  endloop
endfacet
facet normal 0.0 0.0 1.0
  outer loop
    vertex -12.77217603609587 47.92293761520496 53.00000000000001
    vertex -12.836307967416236 48.41006799628867 53.00000000000001
    vertex -12.966834159636281 48.39288389708233 53.00000000000001
  endloop
endfacet
facet normal 0.3826834323650831 -0.9238795325112897 2.310058949606417e-20
  outer loop
    vertex -12.584150727271188 47.46900436457104 55.0
    vertex -12.705781775196188 47.41862313491486 -3.9999999999999996
    vertex -12.584150727271188 47.46900436457104 -3.9999999999999996
  endloop
endfacet
facet normal 0.3826834323650831 -0.9238795325112897 2.310058949606417e-20
  outer loop
    vertex -12.705781775196188 47.41862313491486 -3.9999999999999996
    vertex -12.584150727271188 47.46900436457104 55.0
    vertex -12.705781775196188 47.41862313491486 0.0
  endloop
endfacet
facet normal 0.3826834323650831 -0.9238795325112897 2.310058949606417e-20
  outer loop
    vertex -12.705781775196188 47.41862313491486 0.0
    vertex -12.584150727271188 47.46900436457104 55.0
    vertex -12.705781775196188 47.41862313491486 53.00000000000001
  endloop
endfacet
facet normal 0.3826834323650831 -0.9238795325112897 2.310058949606417e-20
  outer loop
    vertex -12.705781775196188 47.41862313491486 53.00000000000001
    vertex -12.584150727271188 47.46900436457104 55.0
    vertex -12.705781775196188 47.41862313491486 55.0
  endloop
endfacet
facet normal -0.6087614290087194 0.793353340291236 2.05011697807447e-18
  outer loop
    vertex -29.947859885811592 39.629612655877594 53.00000000000001
    vertex -28.478687033420417 40.75694863552337 -3.9999999999999702
    vertex -29.947859885811592 39.629612655877594 -3.9999999999999996
  endloop
endfacet
facet normal -0.6087614290087194 0.793353340291236 2.05011697807447e-18
  outer loop
    vertex -28.478687033420417 40.75694863552337 -3.9999999999999702
    vertex -29.947859885811592 39.629612655877594 53.00000000000001
    vertex -28.361153205229122 40.84713551389503 53.00000000000001
  endloop
endfacet
facet normal -0.6087614290087194 0.793353340291236 2.05011697807447e-18
  outer loop
    vertex -28.361153205229122 40.84713551389503 53.00000000000001
    vertex -29.947859885811592 39.629612655877594 53.00000000000001
    vertex -29.947859885811592 39.629612655877594 55.0
  endloop
endfacet
facet normal -0.6087614290087194 0.793353340291236 2.05011697807447e-18
  outer loop
    vertex -28.361153205229122 40.84713551389503 53.00000000000001
    vertex -29.947859885811592 39.629612655877594 55.0
    vertex -28.361153205229122 40.84713551389503 55.0
  endloop
endfacet
facet normal -0.6087614290087194 0.793353340291236 2.05011697807447e-18
  outer loop
    vertex -28.361153205229122 40.84713551389503 55.0
    vertex -29.947859885811592 39.629612655877594 55.0
    vertex -29.947859885811592 39.629612655877594 79.99999999999996
  endloop
endfacet
facet normal -0.6087614290087194 0.793353340291236 2.05011697807447e-18
  outer loop
    vertex -28.361153205229122 40.84713551389503 55.0
    vertex -29.947859885811592 39.629612655877594 79.99999999999996
    vertex -28.361153205229122 40.84713551389503 79.99999999999996
  endloop
endfacet
facet normal -0.9914448613738107 -0.13052619222005044 0.0
  outer loop
    vertex -12.836307967416236 48.41006799628867 55.0
    vertex -12.77217603609587 47.92293761520496 53.00000000000001
    vertex -12.77217603609587 47.92293761520496 55.0
  endloop
endfacet
facet normal -0.9914448613738107 -0.13052619222005044 0.0
  outer loop
    vertex -12.77217603609587 47.92293761520496 53.00000000000001
    vertex -12.836307967416236 48.41006799628867 55.0
    vertex -12.836307967416236 48.41006799628867 53.00000000000001
  endloop
endfacet
facet normal -0.3826834323650913 0.9238795325112862 4.586733146273306e-17
  outer loop
    vertex -24.6673165676349 42.463993197089096 55.0
    vertex -24.54568551970992 42.51437442674528 53.00000000000001
    vertex -24.6673165676349 42.463993197089096 53.00000000000001
  endloop
endfacet
facet normal -0.3826834323650913 0.9238795325112862 4.586733146273306e-17
  outer loop
    vertex -24.54568551970992 42.51437442674528 53.00000000000001
    vertex -24.6673165676349 42.463993197089096 55.0
    vertex -24.545685519709906 42.51437442674528 55.0
  endloop
endfacet
facet normal -0.9524977630958168 -0.3045455816416738 7.065583059340811e-18
  outer loop
    vertex -38.20945160830758 62.185013388535516 79.99999999999999
    vertex -30.900357648907413 39.325067074235925 -3.9999999999999996
    vertex -30.900357648907413 39.325067074235925 79.99999999999996
  endloop
endfacet
facet normal -0.9524977630958168 -0.3045455816416738 7.065583059340811e-18
  outer loop
    vertex -30.900357648907413 39.325067074235925 -3.9999999999999996
    vertex -38.20945160830758 62.185013388535516 79.99999999999999
    vertex -38.209451608307575 62.1850133885355 -4.000000000000003
  endloop
endfacet
facet normal -0.9524977630958168 -0.3045455816416738 7.065583059340811e-18
  outer loop
    vertex -38.209451608307575 62.1850133885355 -4.000000000000003
    vertex -38.20945160830758 62.185013388535516 79.99999999999999
    vertex -38.20945160830758 62.185013388535516 -1.9999999999999998
  endloop
endfacet
facet normal 0.3045455816416718 -0.9524977630958176 -9.416593844449417e-17
  outer loop
    vertex 2.9353874858434392 50.143493197201565 55.0
    vertex 1.982889722747626 49.8389476155599 -1.9999999999999998
    vertex 2.9353874858434392 50.14349319720157 -1.9999999999999998
  endloop
endfacet
facet normal 0.3045455816416718 -0.9524977630958176 -9.416593844449417e-17
  outer loop
    vertex 1.982889722747626 49.8389476155599 -1.9999999999999998
    vertex 2.9353874858434392 50.143493197201565 55.0
    vertex 1.982889722747626 49.838947615559896 55.0
  endloop
endfacet
facet normal -0.952497763095817 -0.304545581641673 -7.774685314244453e-16
  outer loop
    vertex 1.982889722747626 49.8389476155599 79.99999999999999
    vertex 1.982889722747626 49.8389476155599 -1.9999999999999998
    vertex 1.982889722747626 49.838947615559896 55.0
  endloop
endfacet
facet normal -0.952497763095817 -0.304545581641673 -7.774685314244453e-16
  outer loop
    vertex 1.982889722747626 49.8389476155599 -1.9999999999999998
    vertex 1.982889722747626 49.8389476155599 79.99999999999999
    vertex 1.015805259308406 52.86360416511505 77.99999999999999
  endloop
endfacet
facet normal -0.952497763095817 -0.304545581641673 -7.774685314244453e-16
  outer loop
    vertex 1.015805259308406 52.86360416511505 77.99999999999999
    vertex 1.982889722747626 49.8389476155599 79.99999999999999
    vertex -5.021658655010874 71.74639616676369 79.99999999999999
  endloop
endfacet
facet normal -0.952497763095817 -0.304545581641673 -7.774685314244453e-16
  outer loop
    vertex 1.982889722747626 49.8389476155599 -1.9999999999999998
    vertex 1.015805259308406 52.86360416511505 77.99999999999999
    vertex 1.982889722747626 49.8389476155599 -3.9999999999999996
  endloop
endfacet
facet normal -0.952497763095817 -0.304545581641673 -7.774685314244453e-16
  outer loop
    vertex 1.015805259308406 52.86360416511505 77.99999999999999
    vertex -5.021658655010874 71.74639616676369 79.99999999999999
    vertex -5.021658655010874 71.74639616676369 77.99999999999999
  endloop
endfacet
facet normal -0.952497763095817 -0.304545581641673 -7.774685314244453e-16
  outer loop
    vertex 1.0158052593083609 52.86360416511572 -3.999999999999925
    vertex 1.982889722747626 49.8389476155599 -3.9999999999999996
    vertex 1.015805259308406 52.86360416511505 77.99999999999999
  endloop
endfacet
facet normal -0.1305261922200522 -0.9914448613738105 -1.1796599678085786e-17
  outer loop
    vertex 1.852363530527572 48.84750275418609 55.0
    vertex 0.0 49.091371039419855 -3.9999999999999996
    vertex 1.852363530527572 48.84750275418609 -3.9999999999999996
  endloop
endfacet
facet normal -0.1305261922200522 -0.9914448613738105 -1.1796599678085786e-17
  outer loop
    vertex 0.0 49.091371039419855 -3.9999999999999996
    vertex 1.852363530527572 48.84750275418609 55.0
    vertex 0.0 49.091371039419855 55.0
  endloop
endfacet
facet normal -0.1305261922200522 -0.9914448613738105 -1.1796599678085786e-17
  outer loop
    vertex 0.0 49.091371039419855 55.0
    vertex 1.852363530527572 48.84750275418609 55.0
    vertex 1.852363530527572 48.84750275418609 79.99999999999991
  endloop
endfacet
facet normal -0.1305261922200522 -0.9914448613738105 -1.1796599678085786e-17
  outer loop
    vertex 0.0 49.091371039419855 55.0
    vertex 1.852363530527572 48.84750275418609 79.99999999999991
    vertex 0.0 49.091371039419855 79.99999999999996
  endloop
endfacet
facet normal -0.9524977630958166 -0.3045455816416748 -3.657484333169795e-16
  outer loop
    vertex -27.10495329686755 43.87245153199945 79.99999999999994
    vertex -31.924234884620144 58.945252481264795 77.99999999999999
    vertex -27.10495329686755 43.872451531999445 77.99999999999994
  endloop
endfacet
facet normal -0.9524977630958166 -0.3045455816416748 -3.657484333169795e-16
  outer loop
    vertex -31.924234884620144 58.945252481264795 77.99999999999999
    vertex -27.10495329686755 43.87245153199945 79.99999999999994
    vertex -31.924234884620144 58.945252481264795 79.99999999999997
  endloop
endfacet
facet normal 0.3045455816416742 -0.9524977630958166 0.0
  outer loop
    vertex -5.021658655010874 71.74639616676369 79.99999999999999
    vertex -36.95240826357009 61.53706120708137 77.99999999999999
    vertex -5.021658655010874 71.74639616676369 77.99999999999999
  endloop
endfacet
facet normal 0.3045455816416742 -0.9524977630958166 0.0
  outer loop
    vertex -36.95240826357009 61.53706120708137 77.99999999999999
    vertex -5.021658655010874 71.74639616676369 79.99999999999999
    vertex -36.95240826357009 61.53706120708137 79.99999999999999
  endloop
endfacet
facet normal 0.30454558164167694 -0.9524977630958158 5.807382885031367e-16
  outer loop
    vertex -12.966834159636281 48.39288389708233 -1.9999999999999998
    vertex -27.10495329686752 43.87245153199933 -3.9999999999999702
    vertex -12.966834159636281 48.39288389708233 -3.9999999999999996
  endloop
endfacet
facet normal 0.30454558164167694 -0.9524977630958158 5.807382885031367e-16
  outer loop
    vertex -27.10495329686752 43.87245153199933 -3.9999999999999702
    vertex -12.966834159636281 48.39288389708233 -1.9999999999999998
    vertex -27.10495329686755 43.872451531999445 77.99999999999994
  endloop
endfacet
facet normal 0.30454558164167694 -0.9524977630958158 5.807382885031367e-16
  outer loop
    vertex -27.10495329686755 43.872451531999445 77.99999999999994
    vertex -12.966834159636281 48.39288389708233 -1.9999999999999998
    vertex -12.966834159636281 48.39288389708233 0.0
  endloop
endfacet
facet normal 0.30454558164167694 -0.9524977630958158 5.807382885031367e-16
  outer loop
    vertex -27.10495329686755 43.872451531999445 77.99999999999994
    vertex -12.966834159636281 48.39288389708233 0.0
    vertex -12.966834159636281 48.39288389708233 53.00000000000001
  endloop
endfacet
facet normal 0.30454558164167694 -0.9524977630958158 5.807382885031367e-16
  outer loop
    vertex -27.10495329686755 43.872451531999445 77.99999999999994
    vertex -12.966834159636281 48.39288389708233 53.00000000000001
    vertex -12.966834159636281 48.39288389708233 55.0
  endloop
endfacet
facet normal 0.30454558164167694 -0.9524977630958158 5.807382885031367e-16
  outer loop
    vertex -27.10495329686755 43.872451531999445 77.99999999999994
    vertex -12.966834159636281 48.39288389708233 55.0
    vertex -12.966834159636281 48.39288389708233 79.99999999999996
  endloop
endfacet
facet normal 0.30454558164167694 -0.9524977630958158 5.807382885031367e-16
  outer loop
    vertex -27.10495329686755 43.872451531999445 77.99999999999994
    vertex -12.966834159636281 48.39288389708233 79.99999999999996
    vertex -27.10495329686755 43.87245153199945 79.99999999999994
  endloop
endfacet
facet normal 0.9524977630958168 0.30454558164167406 -4.4477944511046426e-17
  outer loop
    vertex -30.914944349250785 42.65426920543264 -3.9999999999999702
    vertex -29.947859885811592 39.629612655877594 53.00000000000001
    vertex -29.947859885811592 39.629612655877594 -3.9999999999999996
  endloop
endfacet
facet normal 0.9524977630958168 0.30454558164167406 -4.4477944511046426e-17
  outer loop
    vertex -29.947859885811592 39.629612655877594 53.00000000000001
    vertex -30.914944349250785 42.65426920543264 -3.9999999999999702
    vertex -29.947859885811592 39.629612655877594 55.0
  endloop
endfacet
facet normal 0.9524977630958168 0.30454558164167406 -4.4477944511046426e-17
  outer loop
    vertex -29.947859885811592 39.629612655877594 55.0
    vertex -30.914944349250785 42.65426920543264 -3.9999999999999702
    vertex -29.947859885811592 39.629612655877594 79.99999999999996
  endloop
endfacet
facet normal 0.9524977630958168 0.30454558164167406 -4.4477944511046426e-17
  outer loop
    vertex -29.947859885811592 39.629612655877594 79.99999999999996
    vertex -30.914944349250785 42.65426920543264 -3.9999999999999702
    vertex -30.914944349250813 42.654269205432755 77.99999999999994
  endloop
endfacet
facet normal 0.9524977630958168 0.30454558164167406 -4.4477944511046426e-17
  outer loop
    vertex -29.947859885811592 39.629612655877594 79.99999999999996
    vertex -30.914944349250813 42.654269205432755 77.99999999999994
    vertex -36.95240826357009 61.53706120708137 79.99999999999999
  endloop
endfacet
facet normal 0.9524977630958168 0.30454558164167406 -4.4477944511046426e-17
  outer loop
    vertex -36.95240826357009 61.53706120708137 79.99999999999999
    vertex -30.914944349250813 42.654269205432755 77.99999999999994
    vertex -36.95240826357009 61.53706120708137 77.99999999999999
  endloop
endfacet
facet normal -0.130526192220059 0.9914448613738096 -4.279647048110484e-20
  outer loop
    vertex -12.836307967416236 48.41006799628867 53.00000000000001
    vertex -12.966834159636281 48.39288389708233 0.0
    vertex -12.966834159636281 48.39288389708233 53.00000000000001
  endloop
endfacet
facet normal 5.551257846137719e-17 1.6742848455674556e-15 -1.0
  outer loop
    vertex -5.021658655010874 71.74639616676369 77.99999999999999
    vertex -31.924234884620144 58.945252481264795 77.99999999999999
    vertex -36.95240826357009 61.53706120708137 77.99999999999999
  endloop
endfacet
facet normal 5.551257846137719e-17 1.6742848455674556e-15 -1.0
  outer loop
    vertex -31.924234884620144 58.945252481264795 77.99999999999999
    vertex -5.021658655010874 71.74639616676369 77.99999999999999
    vertex -7.613467380827452 66.71822278781373 77.99999999999999
  endloop
endfacet
facet normal 5.551257846137719e-17 1.6742848455674556e-15 -1.0
  outer loop
    vertex -7.613467380827452 66.71822278781373 77.99999999999999
    vertex -5.021658655010874 71.74639616676369 77.99999999999999
    vertex -2.7941857930748633 51.64542183854836 77.99999999999997
  endloop
endfacet
facet normal 5.551257846137719e-17 1.6742848455674556e-15 -1.0
  outer loop
    vertex -2.7941857930748633 51.64542183854836 77.99999999999997
    vertex -5.021658655010874 71.74639616676369 77.99999999999999
    vertex 1.015805259308406 52.86360416511505 77.99999999999999
  endloop
endfacet
facet normal 5.551257846137719e-17 1.6742848455674556e-15 -1.0
  outer loop
    vertex -31.924234884620144 58.945252481264795 77.99999999999999
    vertex -30.914944349250813 42.654269205432755 77.99999999999994
    vertex -36.95240826357009 61.53706120708137 77.99999999999999
  endloop
endfacet
facet normal 5.551257846137719e-17 1.6742848455674556e-15 -1.0
  outer loop
    vertex -30.914944349250813 42.654269205432755 77.99999999999994
    vertex -31.924234884620144 58.945252481264795 77.99999999999999
    vertex -27.10495329686755 43.872451531999445 77.99999999999994
  endloop
endfacet
facet normal -0.30454558164167456 0.9524977630958166 1.2073286293571591e-15
  outer loop
    vertex -31.924234884620144 58.945252481264795 79.99999999999997
    vertex -7.613467380827452 66.71822278781373 77.99999999999999
    vertex -31.924234884620144 58.945252481264795 77.99999999999999
  endloop
endfacet
facet normal -0.30454558164167456 0.9524977630958166 1.2073286293571591e-15
  outer loop
    vertex -7.613467380827452 66.71822278781373 77.99999999999999
    vertex -31.924234884620144 58.945252481264795 79.99999999999997
    vertex -7.613467380827452 66.71822278781373 79.99999999999999
  endloop
endfacet
facet normal 1.2672506181295623e-16 -1.3040151952677965e-15 1.0
  outer loop
    vertex -29.947859885811592 39.629612655877594 79.99999999999996
    vertex -31.924234884620144 58.945252481264795 79.99999999999997
    vertex -36.95240826357009 61.53706120708137 79.99999999999999
  endloop
endfacet
facet normal 1.2672506181295623e-16 -1.3040151952677965e-15 1.0
  outer loop
    vertex -31.924234884620144 58.945252481264795 79.99999999999997
    vertex -29.947859885811592 39.629612655877594 79.99999999999996
    vertex -27.10495329686755 43.87245153199945 79.99999999999994
  endloop
endfacet
facet normal 1.2672506181295623e-16 -1.3040151952677965e-15 1.0
  outer loop
    vertex -27.10495329686755 43.87245153199945 79.99999999999994
    vertex -29.947859885811592 39.629612655877594 79.99999999999996
    vertex -28.361153205229122 40.84713551389503 79.99999999999996
  endloop
endfacet
facet normal 1.2672506181295623e-16 -1.3040151952677965e-15 1.0
  outer loop
    vertex -27.10495329686755 43.87245153199945 79.99999999999994
    vertex -28.361153205229122 40.84713551389503 79.99999999999996
    vertex -25.049999999999986 43.38787272960038 79.99999999999996
  endloop
endfacet
facet normal 1.2672506181295623e-16 -1.3040151952677965e-15 1.0
  outer loop
    vertex -27.10495329686755 43.87245153199945 79.99999999999994
    vertex -25.049999999999986 43.38787272960038 79.99999999999996
    vertex -12.966834159636281 48.39288389708233 79.99999999999996
  endloop
endfacet
facet normal 1.2672506181295623e-16 -1.3040151952677965e-15 1.0
  outer loop
    vertex -12.966834159636281 48.39288389708233 79.99999999999996
    vertex -25.049999999999986 43.38787272960038 79.99999999999996
    vertex -19.008417079818134 45.89037831334135 79.99999999999999
  endloop
endfacet
facet normal 1.2672506181295623e-16 -1.3040151952677965e-15 1.0
  outer loop
    vertex -31.924234884620144 58.945252481264795 79.99999999999997
    vertex -5.021658655010874 71.74639616676369 79.99999999999999
    vertex -36.95240826357009 61.53706120708137 79.99999999999999
  endloop
endfacet
facet normal 1.2672506181295623e-16 -1.3040151952677965e-15 1.0
  outer loop
    vertex -5.021658655010874 71.74639616676369 79.99999999999999
    vertex -31.924234884620144 58.945252481264795 79.99999999999997
    vertex -7.613467380827452 66.71822278781373 79.99999999999999
  endloop
endfacet
facet normal -0.30454558164167417 0.9524977630958166 7.903251495091128e-15
  outer loop
    vertex -2.7941857930748633 51.64542183854836 77.99999999999997
    vertex 1.0158052593083609 52.86360416511572 -3.999999999999925
    vertex -2.794185793074908 51.64542183854902 -3.999999999999925
  endloop
endfacet
facet normal -0.30454558164167417 0.9524977630958166 7.903251495091128e-15
  outer loop
    vertex 1.0158052593083609 52.86360416511572 -3.999999999999925
    vertex -2.7941857930748633 51.64542183854836 77.99999999999997
    vertex 1.015805259308406 52.86360416511505 77.99999999999999
  endloop
endfacet
facet normal -0.13052619222005904 0.9914448613738096 0.0
  outer loop
    vertex -12.966834159636281 48.39288389708233 0.0
    vertex -12.836307967416236 48.41006799628867 -1.9999999999999998
    vertex -12.966834159636281 48.39288389708233 -1.9999999999999998
  endloop
endfacet
facet normal -0.13052619222005904 0.9914448613738096 0.0
  outer loop
    vertex -12.836307967416236 48.41006799628867 -1.9999999999999998
    vertex -12.966834159636281 48.39288389708233 0.0
    vertex -12.836307967416236 48.41006799628867 0.0
  endloop
endfacet
facet normal 0.9524977630958168 0.30454558164167406 3.657484333169787e-16
  outer loop
    vertex -7.613467380827452 66.71822278781373 77.99999999999999
    vertex -2.7941857930748633 51.64542183854836 79.99999999999997
    vertex -2.7941857930748633 51.64542183854836 77.99999999999997
  endloop
endfacet
facet normal 0.9524977630958168 0.30454558164167406 3.657484333169787e-16
  outer loop
    vertex -2.7941857930748633 51.64542183854836 79.99999999999997
    vertex -7.613467380827452 66.71822278781373 77.99999999999999
    vertex -7.613467380827452 66.71822278781373 79.99999999999999
  endloop
endfacet
facet normal 0.13052619222005904 -0.9914448613738096 0.0
  outer loop
    vertex -12.836307967416236 48.41006799628867 -1.9999999999999998
    vertex -12.966834159636281 48.39288389708233 -3.9999999999999996
    vertex -12.836307967416236 48.41006799628867 -3.9999999999999996
  endloop
endfacet
facet normal 0.13052619222005904 -0.9914448613738096 0.0
  outer loop
    vertex -12.966834159636281 48.39288389708233 -3.9999999999999996
    vertex -12.836307967416236 48.41006799628867 -1.9999999999999998
    vertex -12.966834159636281 48.39288389708233 -1.9999999999999998
  endloop
endfacet
facet normal 0.30582322348681024 -0.952088303655096 0.00013423597936716817
  outer loop
    vertex -2.794185793074908 51.64542183854902 -3.999999999999925
    vertex -12.836307967416236 48.41006799628867 -1.9999999999999998
    vertex -12.836307967416236 48.41006799628867 -3.9999999999999996
  endloop
endfacet
facet normal 0.30582322348681024 -0.952088303655096 0.00013423597936716817
  outer loop
    vertex -12.836307967416236 48.41006799628867 -1.9999999999999998
    vertex -2.794185793074908 51.64542183854902 -3.999999999999925
    vertex -2.7941857930748633 51.64542183854836 77.99999999999997
  endloop
endfacet
facet normal 0.30582322348681024 -0.952088303655096 0.00013423597936716817
  outer loop
    vertex -12.836307967416236 48.41006799628867 -1.9999999999999998
    vertex -2.7941857930748633 51.64542183854836 77.99999999999997
    vertex -12.836307967416236 48.41006799628867 0.0
  endloop
endfacet
facet normal 0.30582322348681024 -0.952088303655096 0.00013423597936716817
  outer loop
    vertex -12.836307967416236 48.41006799628867 0.0
    vertex -2.7941857930748633 51.64542183854836 77.99999999999997
    vertex -12.836307967416236 48.41006799628867 53.00000000000001
  endloop
endfacet
facet normal 0.30582322348681024 -0.952088303655096 0.00013423597936716817
  outer loop
    vertex -12.836307967416236 48.41006799628867 53.00000000000001
    vertex -2.7941857930748633 51.64542183854836 77.99999999999997
    vertex -12.836307967416236 48.41006799628867 55.0
  endloop
endfacet
facet normal 0.30582322348681024 -0.952088303655096 0.00013423597936716817
  outer loop
    vertex -12.836307967416236 48.41006799628867 55.0
    vertex -2.7941857930748633 51.64542183854836 77.99999999999997
    vertex -12.966834159636281 48.39288389708233 55.0
  endloop
endfacet
facet normal 0.30582322348681024 -0.952088303655096 0.00013423597936716817
  outer loop
    vertex -12.966834159636281 48.39288389708233 55.0
    vertex -2.7941857930748633 51.64542183854836 77.99999999999997
    vertex -12.966834159636281 48.39288389708233 79.99999999999996
  endloop
endfacet
facet normal 0.30582322348681024 -0.952088303655096 0.00013423597936716817
  outer loop
    vertex -12.966834159636281 48.39288389708233 79.99999999999996
    vertex -2.7941857930748633 51.64542183854836 77.99999999999997
    vertex -2.7941857930748633 51.64542183854836 79.99999999999997
  endloop
endfacet
facet normal -0.30454558164167334 0.952497763095817 -1.4147839214137006e-15
  outer loop
    vertex -30.914944349250813 42.654269205432755 77.99999999999994
    vertex -27.10495329686752 43.87245153199933 -3.9999999999999702
    vertex -30.914944349250785 42.65426920543264 -3.9999999999999702
  endloop
endfacet
facet normal -0.30454558164167334 0.952497763095817 -1.4147839214137006e-15
  outer loop
    vertex -27.10495329686752 43.87245153199933 -3.9999999999999702
    vertex -30.914944349250813 42.654269205432755 77.99999999999994
    vertex -27.10495329686755 43.872451531999445 77.99999999999994
  endloop
endfacet
facet normal -1.1579681400287957e-15 -1.2738350218811287e-15 1.0
  outer loop
    vertex 5.639932965095795e-15 50.1 79.99999999999996
    vertex -2.7941857930748633 51.64542183854836 79.99999999999997
    vertex -12.966834159636281 48.39288389708233 79.99999999999996
  endloop
endfacet
facet normal -1.1579681400287957e-15 -1.2738350218811287e-15 1.0
  outer loop
    vertex -2.7941857930748633 51.64542183854836 79.99999999999997
    vertex -5.021658655010874 71.74639616676369 79.99999999999999
    vertex -7.613467380827452 66.71822278781373 79.99999999999999
  endloop
endfacet
facet normal -1.1579681400287957e-15 -1.2738350218811287e-15 1.0
  outer loop
    vertex -5.021658655010874 71.74639616676369 79.99999999999999
    vertex -2.7941857930748633 51.64542183854836 79.99999999999997
    vertex 1.982889722747626 49.8389476155599 79.99999999999999
  endloop
endfacet
facet normal -1.1579681400287957e-15 -1.2738350218811287e-15 1.0
  outer loop
    vertex 1.982889722747626 49.8389476155599 79.99999999999999
    vertex -2.7941857930748633 51.64542183854836 79.99999999999997
    vertex 5.639932965095795e-15 50.1 79.99999999999996
  endloop
endfacet
endsolid Camera Pod
